<?xml version="1.0" encoding="UTF-8"?>
<svg xmlns="http://www.w3.org/2000/svg" xmlns:xlink="http://www.w3.org/1999/xlink" width="1024px" height="1024px" viewBox="0 0 1024 1024" version="1.1">
<g id="surface1">
<path style="fill:none;stroke-width:1.5;stroke-linecap:round;stroke-linejoin:round;stroke:rgb(0%,0%,0%);stroke-opacity:0.501961;stroke-miterlimit:4;" d="M 8.152771 19.820343 C 8.574772 19.820343 8.917809 20.1633 8.917809 20.585266 C 8.917809 21.007324 8.574772 21.349274 8.152771 21.349274 C 7.73077 21.349274 7.388783 21.007324 7.388783 20.585266 C 7.388783 20.1633 7.73077 19.820343 8.152771 19.820343 Z M 8.152771 19.820343 " transform="matrix(40.96,0,0,42.666667,0,0)"/>
<path style="fill:none;stroke-width:1.5;stroke-linecap:round;stroke-linejoin:round;stroke:rgb(0%,0%,0%);stroke-opacity:0.501961;stroke-miterlimit:4;" d="M 19.405079 19.820343 C 19.82708 19.820343 20.170116 20.1633 20.170116 20.585266 C 20.170116 21.007324 19.82708 21.349274 19.405079 21.349274 C 18.983078 21.349274 18.640137 21.007324 18.640137 20.585266 C 18.640137 20.1633 18.983078 19.820343 19.405079 19.820343 Z M 19.405079 19.820343 " transform="matrix(40.96,0,0,42.666667,0,0)"/>
<path style="fill:none;stroke-width:1.5;stroke-linecap:round;stroke-linejoin:round;stroke:rgb(0%,0%,0%);stroke-opacity:0.501961;stroke-miterlimit:4;" d="M 3.480339 3.250031 L 5.560303 3.610016 L 6.523323 15.083038 C 6.601334 16.017975 7.382393 16.736023 8.320332 16.736023 L 19.232273 16.736023 C 20.128345 16.736023 20.888329 16.078033 21.017265 15.189972 L 21.966267 8.631958 C 22.083282 7.822998 21.456337 7.098999 20.639324 7.098999 L 5.894375 7.098999 " transform="matrix(40.96,0,0,42.666667,0,0)"/>
<path style="fill:none;stroke-width:1.5;stroke-linecap:round;stroke-linejoin:round;stroke:rgb(0%,0%,0%);stroke-opacity:0.501961;stroke-miterlimit:4;" d="M 14.855766 10.794983 L 17.628765 10.794983 " transform="matrix(40.96,0,0,42.666667,0,0)"/>
</g>
</svg>
