<?xml version="1.0" encoding="UTF-8"?>
<svg xmlns="http://www.w3.org/2000/svg" xmlns:xlink="http://www.w3.org/1999/xlink" width="1024px" height="1024px" viewBox="0 0 1024 1024" version="1.1">
<g id="surface1">
<path style=" stroke:none;fill-rule:nonzero;fill:rgb(100%,95.294118%,87.058824%);fill-opacity:1;" d="M 262.1875 109.75 L 177.289062 767.863281 L 175.28125 783.496094 L 173.273438 799.105469 L 164.636719 865.984375 C 162.363281 882.222656 147.664062 893.488281 131.839844 891.15625 L 24.828125 875.289062 C 8.984375 872.9375 -1.988281 857.875 0.304688 841.613281 L 8.574219 775.511719 L 12.503906 744.246094 L 74.394531 250.375 C 79.714844 207.914062 101.765625 169.527344 135.402344 144.164062 L 224.863281 85.164062 Z M 262.1875 109.75 "/>
<path style=" stroke:none;fill-rule:nonzero;fill:rgb(100%,89.803922%,76.078431%);fill-opacity:1;" d="M 227.261719 380.519531 L 175.28125 783.492188 L 164.636719 865.984375 C 162.363281 882.222656 147.664062 893.484375 131.839844 891.15625 L 108.316406 887.667969 C 115.933594 883.296875 121.5625 875.523438 122.894531 865.984375 L 133.539062 783.492188 L 196.96875 291.8125 C 198.863281 277.105469 219.390625 276.523438 222.078125 291.097656 L 224.867188 306.246094 Z M 227.261719 380.519531 "/>
<path style=" stroke:none;fill-rule:nonzero;fill:rgb(100%,95.294118%,87.058824%);fill-opacity:1;" d="M 992.640625 875.289062 L 885.632812 891.15625 C 869.808594 893.488281 855.109375 882.222656 852.835938 865.984375 L 844.195312 799.105469 L 842.191406 783.496094 L 840.183594 767.863281 L 755.285156 109.75 L 792.609375 85.164062 L 882.070312 144.164062 C 915.707031 169.527344 937.753906 207.914062 943.078125 250.375 L 1004.964844 744.246094 L 1006.933594 759.878906 L 1008.898438 775.511719 L 1017.167969 841.613281 C 1019.464844 857.875 1008.488281 872.9375 992.640625 875.289062 Z M 992.640625 875.289062 "/>
<path style=" stroke:none;fill-rule:nonzero;fill:rgb(100%,89.803922%,76.078431%);fill-opacity:1;" d="M 1017.171875 841.601562 L 1006.9375 759.867188 L 943.082031 250.378906 C 937.757812 207.914062 915.707031 169.527344 882.070312 144.164062 L 792.609375 85.164062 L 771.726562 98.917969 L 840.339844 144.167969 C 873.976562 169.527344 896.023438 207.917969 901.347656 250.382812 L 965.203125 759.871094 L 975.4375 841.605469 C 977.730469 857.867188 966.757812 872.933594 950.914062 875.285156 L 867.417969 887.664062 C 872.777344 890.730469 879.101562 892.113281 885.636719 891.148438 L 992.648438 875.285156 C 1008.492188 872.929688 1019.464844 857.863281 1017.171875 841.601562 Z M 1017.171875 841.601562 "/>
<path style=" stroke:none;fill-rule:nonzero;fill:rgb(100%,95.294118%,87.058824%);fill-opacity:1;" d="M 778.933594 730.503906 C 778.8125 732.433594 778.894531 734.386719 779.136719 736.300781 L 796.664062 930.152344 C 798.464844 944.898438 788.597656 958.472656 774.308594 960.890625 L 524.09375 1003.207031 L 508.738281 991.25 L 493.382812 1003.226562 L 466.605469 998.6875 L 243.167969 960.890625 C 228.878906 958.472656 218.992188 944.898438 220.792969 930.152344 L 238.339844 736.300781 C 238.585938 734.386719 238.644531 732.433594 238.542969 730.503906 L 227.261719 380.519531 L 224.867188 306.242188 L 207.363281 211.230469 L 206.730469 207.828125 C 199.011719 165.992188 204.210938 131.136719 221.570312 92.476562 L 224.867188 85.164062 L 345.800781 35.722656 L 671.65625 35.722656 L 792.609375 85.164062 L 795.90625 92.476562 C 813.265625 131.136719 818.445312 165.992188 810.75 207.828125 L 792.609375 306.242188 Z M 778.933594 730.503906 "/>
<path style=" stroke:none;fill-rule:nonzero;fill:rgb(100%,89.803922%,76.078431%);fill-opacity:1;" d="M 508.71875 81.003906 L 508.71875 1005.8125 L 466.605469 998.691406 L 466.605469 81.003906 Z M 508.71875 81.003906 "/>
<path style=" stroke:none;fill-rule:nonzero;fill:rgb(91.372549%,71.372549%,39.607843%);fill-opacity:1;" d="M 524.089844 62.429688 L 524.089844 1003.207031 L 508.738281 1005.8125 L 508.714844 1005.8125 L 493.382812 1003.230469 L 493.382812 62.429688 C 493.382812 51.441406 500.261719 42.53125 508.738281 42.53125 C 517.210938 42.53125 524.089844 51.441406 524.089844 62.429688 Z M 524.089844 62.429688 "/>
<path style=" stroke:none;fill-rule:nonzero;fill:rgb(100%,89.803922%,76.078431%);fill-opacity:1;" d="M 792.609375 306.246094 L 810.746094 207.828125 C 818.445312 165.996094 813.261719 131.136719 795.902344 92.476562 L 792.609375 85.164062 L 671.65625 35.726562 L 595.148438 0.0078125 L 553.417969 0.0078125 L 629.921875 35.726562 L 750.871094 85.164062 L 754.171875 92.476562 C 771.53125 131.136719 776.710938 165.996094 769.011719 207.828125 L 750.871094 306.246094 L 737.199219 730.503906 C 737.074219 732.4375 737.15625 734.390625 737.402344 736.300781 L 754.925781 930.152344 C 756.726562 944.902344 746.910156 965.523438 732.621094 967.941406 L 774.308594 960.890625 C 788.59375 958.476562 798.460938 944.902344 796.660156 930.152344 L 779.136719 736.300781 C 778.890625 734.390625 778.808594 732.4375 778.933594 730.503906 Z M 792.609375 306.246094 "/>
<path style=" stroke:none;fill-rule:nonzero;fill:rgb(100%,89.803922%,76.078431%);fill-opacity:1;" d="M 508.734375 123.300781 L 439.332031 180.171875 C 430.652344 187.28125 417.792969 184.363281 412.851562 174.15625 L 345.808594 35.722656 L 422.304688 0.00390625 Z M 508.734375 123.300781 "/>
<path style=" stroke:none;fill-rule:nonzero;fill:rgb(99.607843%,82.352941%,64.313725%);fill-opacity:1;" d="M 422.304688 0 L 390.859375 14.683594 L 456.324219 108.078125 C 462.300781 116.605469 460.714844 128.441406 452.71875 134.996094 L 410.597656 169.511719 L 412.84375 174.152344 C 417.789062 184.359375 430.648438 187.277344 439.324219 180.167969 L 508.726562 123.296875 Z M 422.304688 0 "/>
<path style=" stroke:none;fill-rule:nonzero;fill:rgb(100%,89.803922%,76.078431%);fill-opacity:1;" d="M 508.730469 123.300781 L 578.132812 180.171875 C 586.8125 187.28125 599.671875 184.363281 604.613281 174.15625 L 671.65625 35.722656 L 595.160156 0.00390625 Z M 508.730469 123.300781 "/>
<path style=" stroke:none;fill-rule:nonzero;fill:rgb(99.607843%,82.352941%,64.313725%);fill-opacity:1;" d="M 595.160156 0 L 584.871094 14.683594 L 614.382812 28.464844 C 622.878906 32.429688 626.476562 42.835938 622.324219 51.414062 L 565.132812 169.511719 L 578.140625 180.171875 C 586.816406 187.285156 599.675781 184.359375 604.621094 174.15625 L 671.664062 35.722656 Z M 595.160156 0 "/>
<path style=" stroke:none;fill-rule:nonzero;fill:rgb(91.372549%,71.372549%,39.607843%);fill-opacity:1;" d="M 595.152344 0.0078125 L 508.738281 123.300781 L 422.300781 0.0078125 Z M 595.152344 0.0078125 "/>
<path style=" stroke:none;fill-rule:nonzero;fill:rgb(84.705882%,66.666667%,36.862745%);fill-opacity:1;" d="M 553.414062 0.0078125 L 487.863281 93.53125 L 508.738281 123.300781 L 595.148438 0.0078125 Z M 553.414062 0.0078125 "/>
<path style=" stroke:none;fill-rule:nonzero;fill:rgb(100%,89.803922%,76.078431%);fill-opacity:1;" d="M 702.769531 467.097656 L 672.148438 484.964844 C 660.996094 491.472656 647.324219 491.472656 636.175781 484.964844 L 605.554688 467.097656 C 594.175781 460.457031 587.148438 448.058594 587.148438 434.625 L 587.148438 356.152344 C 587.148438 335.523438 603.441406 318.800781 623.542969 318.800781 L 684.785156 318.800781 C 704.886719 318.800781 721.179688 335.523438 721.179688 356.152344 L 721.179688 434.625 C 721.175781 448.058594 714.144531 460.457031 702.769531 467.097656 Z M 702.769531 467.097656 "/>
<path style=" stroke:none;fill-rule:nonzero;fill:rgb(99.607843%,82.352941%,64.313725%);fill-opacity:1;" d="M 684.78125 318.800781 L 643.046875 318.800781 C 663.148438 318.800781 679.441406 335.523438 679.441406 356.152344 L 679.441406 434.625 C 679.441406 448.058594 672.414062 460.457031 661.035156 467.097656 L 633.292969 483.285156 L 636.171875 484.964844 C 647.324219 491.472656 660.992188 491.472656 672.144531 484.964844 L 702.765625 467.097656 C 714.144531 460.457031 721.175781 448.058594 721.175781 434.625 L 721.175781 356.152344 C 721.175781 335.523438 704.878906 318.800781 684.78125 318.800781 Z M 684.78125 318.800781 "/>
<path style=" stroke:none;fill-rule:nonzero;fill:rgb(100%,89.803922%,76.078431%);fill-opacity:1;" d="M 12.667969 744.265625 C 12.605469 744.265625 12.566406 744.246094 12.503906 744.246094 L 8.574219 775.511719 L 173.273438 799.105469 L 175.28125 783.496094 L 177.289062 767.863281 Z M 12.667969 744.265625 "/>
<path style=" stroke:none;fill-rule:nonzero;fill:rgb(100%,89.803922%,76.078431%);fill-opacity:1;" d="M 1006.933594 759.878906 L 1004.96875 744.246094 C 1004.90625 744.246094 1004.867188 744.265625 1004.804688 744.265625 L 840.1875 767.863281 L 842.191406 783.496094 L 844.199219 799.105469 L 1008.898438 775.511719 Z M 1006.933594 759.878906 "/>
</g>
</svg>
