<?xml version="1.0" encoding="UTF-8"?>
<svg xmlns="http://www.w3.org/2000/svg" xmlns:xlink="http://www.w3.org/1999/xlink" width="1024px" height="1024px" viewBox="0 0 1024 1024" version="1.1">
<g id="surface1">
<path style=" stroke:none;fill-rule:nonzero;fill:rgb(94.117647%,76.862745%,9.803922%);fill-opacity:1;" d="M 1012.695312 859.003906 C 989.230469 777.917969 946.703125 699.613281 886.574219 626.78125 C 841.839844 570.417969 788.585938 517.035156 727.585938 467.398438 L 727.585938 467.222656 C 728.128906 466.800781 728.582031 466.335938 728.933594 465.835938 C 800.613281 395.074219 811.660156 310.09375 811.390625 262.402344 C 811.386719 249.890625 810.398438 237.386719 808.425781 224.9375 L 893.3125 252.339844 C 906.144531 256.488281 921.777344 253.4375 928.882812 245.402344 L 1012.960938 150.710938 C 1019.398438 143.605469 1017.015625 134.550781 1007.296875 129.207031 L 842.644531 36.59375 C 820.144531 23.910156 793.257812 14.871094 764.230469 10.230469 L 700.640625 0 C 698.03125 17.058594 694.074219 34.019531 688.785156 50.816406 C 632.285156 64.320312 572.246094 70.625 512.007812 69.375 C 451.769531 70.625 391.726562 64.324219 335.230469 50.816406 C 329.941406 34.019531 325.984375 17.058594 323.375 0 L 259.78125 10.230469 C 230.75 14.871094 203.863281 23.910156 181.363281 36.59375 L 16.714844 129.207031 C 6.992188 134.550781 4.609375 143.605469 11.050781 150.710938 L 95.128906 245.40625 C 102.230469 253.441406 117.863281 256.488281 130.699219 252.34375 L 215.582031 224.941406 C 213.609375 237.386719 212.621094 249.890625 212.621094 262.402344 C 212.351562 310.269531 223.398438 395.25 295.078125 465.839844 C 295.421875 466.394531 295.875 466.917969 296.421875 467.398438 C 261.589844 495.496094 229.550781 524.976562 200.488281 555.671875 C 129.375 627.804688 74.226562 705.964844 36.648438 787.898438 C 17.339844 830.121094 5.054688 873.554688 0 917.449219 C 0 917.449219 120.183594 994.628906 378.070312 1004.6875 C 422.683594 1006.523438 467.441406 1006.289062 512 1003.992188 C 862.316406 1021.335938 1024 917.449219 1024 917.449219 C 1021.878906 897.851562 1018.101562 878.339844 1012.695312 859.003906 Z M 1012.695312 859.003906 "/>
<path style=" stroke:none;fill-rule:nonzero;fill:rgb(23.137255%,59.215686%,82.745098%);fill-opacity:1;" d="M 344.933594 397.332031 C 362.03125 409.359375 366.433594 426.761719 356.144531 441.660156 C 345.859375 456.558594 322.835938 466.121094 297.503906 466.011719 C 296.6875 466.039062 295.867188 465.980469 295.078125 465.839844 C 223.398438 395.253906 212.351562 310.273438 212.621094 262.402344 C 219.363281 260.855469 226.480469 260.09375 233.636719 260.148438 C 250.621094 260.152344 266.902344 264.507812 278.886719 272.253906 C 290.871094 279.996094 297.570312 290.492188 297.503906 301.425781 C 297.484375 305.546875 296.484375 309.640625 294.539062 313.566406 C 299.234375 315.699219 303.648438 318.074219 307.742188 320.671875 C 317.589844 317.042969 328.738281 315.128906 340.082031 315.125 C 374.53125 315.058594 402.867188 332.566406 404.179688 354.71875 C 405.488281 376.871094 379.289062 395.714844 344.933594 397.332031 Z M 344.933594 397.332031 "/>
<path style=" stroke:none;fill-rule:nonzero;fill:rgb(23.137255%,59.215686%,82.745098%);fill-opacity:1;" d="M 404.21875 676.382812 C 404.171875 657.730469 388.644531 640.519531 363.503906 631.246094 C 338.363281 621.976562 307.4375 622.058594 282.414062 631.460938 C 277.222656 628.179688 271.636719 625.164062 265.707031 622.445312 C 268.203125 617.457031 269.476562 612.25 269.480469 607.003906 C 269.621094 581.210938 240.175781 559.300781 200.496094 555.671875 C 129.378906 627.804688 74.234375 705.960938 36.65625 787.894531 C 51.855469 805.992188 82.226562 816.609375 114.089844 814.957031 C 145.953125 813.304688 173.292969 799.695312 183.792969 780.265625 C 187.050781 774.78125 188.695312 768.960938 188.640625 763.09375 C 188.585938 768.960938 190.226562 774.78125 193.484375 780.265625 C 204.253906 800.15625 232.628906 813.890625 265.3125 815.023438 C 297.992188 816.160156 328.503906 804.46875 342.535156 785.441406 C 356.5625 766.40625 351.339844 743.808594 329.300781 728.234375 C 371.597656 726.34375 404.363281 703.664062 404.21875 676.382812 Z M 207.773438 706.039062 C 200.066406 711.039062 188.414062 712.546875 178.304688 709.84375 C 168.195312 707.140625 161.628906 700.769531 161.695312 693.726562 C 161.734375 691.457031 162.464844 689.214844 163.851562 687.132812 C 167.792969 680.53125 177.648438 676.175781 188.640625 676.175781 C 199.632812 676.175781 209.488281 680.53125 213.433594 687.132812 C 214.816406 689.21875 215.550781 691.457031 215.589844 693.726562 C 215.484375 698.3125 212.695312 702.710938 207.773438 706.039062 Z M 207.773438 706.039062 "/>
<path style=" stroke:none;fill-rule:nonzero;fill:rgb(94.901961%,61.176471%,12.156863%);fill-opacity:1;" d="M 512.007812 815.125 L 512.007812 1003.992188 C 467.449219 1006.289062 422.6875 1006.519531 378.078125 1004.683594 Z M 512.007812 815.125 "/>
<path style=" stroke:none;fill-rule:nonzero;fill:rgb(23.137255%,59.215686%,82.745098%);fill-opacity:1;" d="M 886.578125 626.78125 C 862.03125 621.769531 835.234375 624.605469 814.46875 634.410156 C 793.695312 644.210938 781.441406 659.804688 781.488281 676.382812 C 781.492188 681.621094 782.765625 686.828125 785.257812 691.816406 C 779.328125 694.535156 773.742188 697.550781 768.550781 700.832031 C 739.800781 689.972656 703.636719 691.574219 677.472656 704.878906 C 651.3125 718.179688 640.523438 740.453125 650.296875 760.96875 C 660.074219 781.484375 688.410156 796.035156 721.660156 797.609375 C 699.605469 813.183594 694.367188 835.792969 708.394531 854.832031 C 722.429688 873.875 752.945312 885.5625 785.644531 884.425781 C 818.335938 883.285156 846.714844 869.542969 857.476562 849.640625 C 860.734375 844.160156 862.378906 838.339844 862.324219 832.472656 C 862.269531 838.339844 863.910156 844.160156 867.171875 849.640625 C 877.464844 868.730469 904.042969 882.234375 935.285156 884.242188 C 966.519531 886.253906 996.726562 876.402344 1012.691406 859.007812 C 989.234375 777.921875 946.707031 699.617188 886.578125 626.78125 Z M 881.464844 775.410156 C 873.75 780.410156 862.105469 781.917969 851.996094 779.214844 C 841.882812 776.515625 835.320312 770.140625 835.382812 763.097656 C 835.421875 760.832031 836.152344 758.589844 837.539062 756.507812 C 841.480469 749.90625 851.339844 745.546875 862.328125 745.546875 C 873.324219 745.546875 883.175781 749.90625 887.121094 756.507812 C 888.503906 758.59375 889.242188 760.832031 889.28125 763.097656 C 889.171875 767.691406 886.382812 772.085938 881.464844 775.410156 Z M 881.464844 775.410156 "/>
<path style=" stroke:none;fill-rule:nonzero;fill:rgb(23.137255%,59.215686%,82.745098%);fill-opacity:1;" d="M 811.398438 262.402344 C 811.664062 310.09375 800.621094 395.074219 728.941406 465.835938 C 728.152344 465.980469 727.332031 466.039062 726.511719 466.007812 C 701.183594 466.117188 678.15625 456.558594 667.871094 441.660156 C 657.582031 426.761719 661.984375 409.359375 679.082031 397.328125 C 644.78125 395.714844 618.605469 376.929688 619.839844 354.804688 C 621.070312 332.683594 649.273438 315.152344 683.664062 315.125 C 695.101562 315.105469 706.347656 317.019531 716.273438 320.671875 C 720.425781 318.117188 724.835938 315.742188 729.480469 313.566406 C 727.53125 309.640625 726.535156 305.546875 726.511719 301.425781 C 726.445312 290.492188 733.144531 279.996094 745.128906 272.253906 C 757.117188 264.507812 773.398438 260.152344 790.382812 260.148438 C 797.535156 260.089844 804.65625 260.855469 811.398438 262.402344 Z M 811.398438 262.402344 "/>
<path style=" stroke:none;fill-rule:nonzero;fill:rgb(94.901961%,61.176471%,12.156863%);fill-opacity:1;" d="M 688.785156 50.816406 C 669.917969 114.8125 622.222656 219.21875 512.007812 242.804688 C 401.789062 219.214844 354.09375 114.808594 335.230469 50.816406 C 391.730469 64.320312 451.769531 70.625 512.007812 69.375 C 572.25 70.625 632.285156 64.320312 688.785156 50.816406 Z M 688.785156 50.816406 "/>
<path style=" stroke:none;fill-rule:nonzero;fill:rgb(15.686275%,33.72549%,50.196078%);fill-opacity:1;" d="M 215.585938 693.726562 C 215.585938 703.300781 203.523438 711.066406 188.636719 711.066406 C 173.753906 711.066406 161.691406 703.304688 161.691406 693.726562 C 161.730469 691.457031 162.460938 689.214844 163.847656 687.136719 C 167.789062 680.53125 177.644531 676.175781 188.636719 676.175781 C 199.632812 676.175781 209.484375 680.53125 213.429688 687.136719 C 214.816406 689.21875 215.546875 691.457031 215.585938 693.726562 Z M 215.585938 693.726562 "/>
<path style=" stroke:none;fill-rule:nonzero;fill:rgb(15.686275%,33.72549%,50.196078%);fill-opacity:1;" d="M 889.273438 763.09375 C 889.273438 772.671875 877.207031 780.4375 862.320312 780.4375 C 847.441406 780.4375 835.375 772.675781 835.375 763.09375 C 835.414062 760.828125 836.148438 758.589844 837.535156 756.507812 C 841.472656 749.90625 851.332031 745.542969 862.320312 745.542969 C 873.316406 745.542969 883.167969 749.90625 887.113281 756.507812 C 888.5 758.589844 889.234375 760.828125 889.273438 763.09375 Z M 889.273438 763.09375 "/>
</g>
</svg>
