<?xml version="1.0" encoding="UTF-8"?>
<svg xmlns="http://www.w3.org/2000/svg" xmlns:xlink="http://www.w3.org/1999/xlink" width="1024px" height="1024px" viewBox="0 0 1024 1024" version="1.1">
<g id="surface1">
<path style=" stroke:none;fill-rule:nonzero;fill:rgb(2.745098%,43.529412%,89.803922%);fill-opacity:1;" d="M 511.867188 15.996094 C 239.390625 15.996094 18.5 236.886719 18.5 509.363281 C 18.5 753.742188 196.367188 956.128906 429.582031 995.320312 L 429.582031 612.292969 L 310.570312 612.292969 L 310.570312 474.457031 L 429.582031 474.457031 L 429.582031 372.824219 C 429.582031 254.894531 501.609375 190.632812 606.824219 190.632812 C 657.210938 190.632812 700.519531 194.386719 713.089844 196.042969 L 713.089844 319.304688 L 640.113281 319.34375 C 582.910156 319.34375 571.878906 346.523438 571.878906 386.417969 L 571.878906 474.386719 L 708.382812 474.386719 L 690.578125 612.222656 L 571.878906 612.222656 L 571.878906 998.617188 C 815.980469 968.90625 1005.226562 761.363281 1005.226562 509.222656 C 1005.226562 236.886719 784.335938 15.996094 511.867188 15.996094 Z M 511.867188 15.996094 "/>
</g>
</svg>
