<?xml version="1.0" encoding="UTF-8"?>
<svg xmlns="http://www.w3.org/2000/svg" xmlns:xlink="http://www.w3.org/1999/xlink" width="1024px" height="1024px" viewBox="0 0 1024 1024" version="1.1">
<defs>
<clipPath id="clip1">
  <path d="M 534 436 L 1008.902344 436 L 1008.902344 953 L 534 953 Z M 534 436 "/>
</clipPath>
<clipPath id="clip2">
  <path d="M 83 673 L 761 673 L 761 1019.160156 L 83 1019.160156 Z M 83 673 "/>
</clipPath>
<clipPath id="clip3">
  <path d="M 512 784 L 761 784 L 761 1019.160156 L 512 1019.160156 Z M 512 784 "/>
</clipPath>
<clipPath id="clip4">
  <path d="M 16.902344 275 L 252 275 L 252 771 L 16.902344 771 Z M 16.902344 275 "/>
</clipPath>
<clipPath id="clip5">
  <path d="M 83 27.160156 L 849 27.160156 L 849 373 L 83 373 Z M 83 27.160156 "/>
</clipPath>
<clipPath id="clip6">
  <path d="M 512 27.160156 L 850 27.160156 L 850 298 L 512 298 Z M 512 27.160156 "/>
</clipPath>
</defs>
<g id="surface1">
<g clip-path="url(#clip1)" clip-rule="nonzero">
<path style=" stroke:none;fill-rule:nonzero;fill:rgb(8.627451%,49.411765%,90.196078%);fill-opacity:1;" d="M 971.457031 436.921875 L 566.824219 436.902344 C 548.960938 436.902344 534.476562 451.382812 534.476562 469.25 L 534.476562 598.511719 C 534.476562 616.375 548.960938 630.859375 566.824219 630.859375 L 794.6875 630.859375 C 769.734375 695.613281 723.164062 749.839844 663.75 784.296875 L 760.910156 952.488281 C 916.769531 862.351562 1008.910156 704.195312 1008.910156 527.152344 C 1008.910156 501.941406 1007.054688 483.921875 1003.335938 463.628906 C 1000.511719 448.214844 987.125 436.921875 971.457031 436.921875 Z M 971.457031 436.921875 "/>
</g>
<g clip-path="url(#clip2)" clip-rule="nonzero">
<path style=" stroke:none;fill-rule:nonzero;fill:rgb(7.058824%,70.196078%,27.843137%);fill-opacity:1;" d="M 512.894531 825.066406 C 401.386719 825.066406 304.035156 764.140625 251.753906 673.984375 L 83.566406 770.925781 C 169.15625 919.265625 329.492188 1019.15625 512.894531 1019.15625 C 602.867188 1019.15625 687.761719 994.929688 760.894531 952.714844 L 760.894531 952.484375 L 663.734375 784.289062 C 619.292969 810.0625 567.863281 825.066406 512.894531 825.066406 Z M 512.894531 825.066406 "/>
</g>
<g clip-path="url(#clip3)" clip-rule="nonzero">
<path style=" stroke:none;fill-rule:nonzero;fill:rgb(5.882353%,60%,24.313725%);fill-opacity:1;" d="M 760.902344 952.71875 L 760.902344 952.488281 L 663.742188 784.292969 C 619.300781 810.070312 567.875 825.074219 512.902344 825.074219 L 512.902344 1019.160156 C 602.875 1019.160156 687.773438 994.9375 760.902344 952.71875 Z M 760.902344 952.71875 "/>
</g>
<g clip-path="url(#clip4)" clip-rule="nonzero">
<path style=" stroke:none;fill-rule:nonzero;fill:rgb(100%,83.529412%,0%);fill-opacity:1;" d="M 210.988281 523.15625 C 210.988281 468.1875 225.988281 416.769531 251.761719 372.328125 L 83.574219 275.386719 C 41.125 348.289062 16.902344 432.953125 16.902344 523.15625 C 16.902344 613.355469 41.125 698.023438 83.574219 770.925781 L 251.761719 673.984375 C 225.988281 629.542969 210.988281 578.117188 210.988281 523.15625 Z M 210.988281 523.15625 "/>
</g>
<g clip-path="url(#clip5)" clip-rule="nonzero">
<path style=" stroke:none;fill-rule:nonzero;fill:rgb(100%,29.411765%,14.901961%);fill-opacity:1;" d="M 512.894531 221.246094 C 585.613281 221.246094 652.402344 247.085938 704.574219 290.066406 C 717.445312 300.667969 736.152344 299.902344 747.941406 288.113281 L 839.53125 196.527344 C 852.90625 183.148438 851.953125 161.253906 837.664062 148.859375 C 750.253906 73.027344 636.523438 27.160156 512.894531 27.160156 C 329.492188 27.160156 169.15625 127.050781 83.566406 275.390625 L 251.753906 372.332031 C 304.035156 282.175781 401.386719 221.246094 512.894531 221.246094 Z M 512.894531 221.246094 "/>
</g>
<g clip-path="url(#clip6)" clip-rule="nonzero">
<path style=" stroke:none;fill-rule:nonzero;fill:rgb(85.098039%,24.705882%,12.941176%);fill-opacity:1;" d="M 704.582031 290.066406 C 717.453125 300.667969 736.164062 299.902344 747.953125 288.113281 L 839.535156 196.527344 C 852.910156 183.148438 851.957031 161.253906 837.671875 148.859375 C 750.257812 73.023438 636.527344 27.160156 512.902344 27.160156 L 512.902344 221.246094 C 585.617188 221.246094 652.414062 247.085938 704.582031 290.066406 Z M 704.582031 290.066406 "/>
</g>
</g>
</svg>
