<?xml version="1.0" encoding="UTF-8"?>
<svg xmlns="http://www.w3.org/2000/svg" xmlns:xlink="http://www.w3.org/1999/xlink" width="1024px" height="1024px" viewBox="0 0 1024 1024" version="1.1">
<g id="surface1">
<path style=" stroke:none;fill-rule:nonzero;fill:rgb(100%,20.784314%,20.784314%);fill-opacity:1;" d="M 750.359375 127.550781 C 725.355469 119.160156 699.054688 115.445312 672.710938 115.445312 C 614.6875 115.027344 558.371094 134.230469 511.992188 169.671875 C 508.234375 166.789062 503.644531 164.246094 499.46875 161.78125 C 495.292969 159.234375 487.78125 153.015625 481.519531 149.675781 L 465.65625 142.578125 C 457.304688 137.988281 448.582031 134.648438 439.355469 131.683594 C 438.519531 130.890625 437.269531 130.011719 435.597656 129.21875 L 433.136719 129.21875 C 408.464844 120.828125 383 116.238281 356.699219 115.445312 L 352.109375 115.445312 C 340.417969 115.445312 328.773438 116.238281 317.042969 117.949219 L 312.03125 117.949219 C 299.507812 119.578125 287.027344 122.5 274.921875 126.671875 C 119.167969 177.644531 63.648438 346.714844 110.820312 494.492188 C 137.535156 570.007812 180.574219 638.511719 236.515625 694.828125 C 317.878906 773.308594 406.835938 842.609375 502.390625 901.882812 L 513.246094 908.601562 L 523.679688 902.300781 C 618.902344 842.609375 707.359375 773.308594 787.96875 695.246094 C 844.289062 638.929688 887.28125 570.007812 913.582031 494.492188 C 959.960938 346.714844 904.445312 177.644531 750.359375 127.550781 Z M 750.359375 127.550781 "/>
</g>
</svg>
