<?xml version="1.0" encoding="UTF-8"?>
<svg xmlns="http://www.w3.org/2000/svg" xmlns:xlink="http://www.w3.org/1999/xlink" width="1024px" height="1024px" viewBox="0 0 1024 1024" version="1.1">
<g id="surface1">
<path style=" stroke:none;fill-rule:nonzero;fill:rgb(96.470588%,47.45098%,32.156863%);fill-opacity:1;" d="M 354.296875 958.429688 L 354.296875 802.835938 C 354.296875 763.121094 386.730469 730.921875 426.738281 730.921875 L 572.996094 730.921875 C 592.203125 730.921875 610.632812 738.5 624.214844 751.984375 C 637.804688 765.472656 645.4375 783.765625 645.4375 802.835938 L 645.4375 958.429688 C 645.316406 974.941406 651.835938 990.824219 663.558594 1002.535156 C 675.277344 1014.257812 691.21875 1020.847656 707.855469 1020.847656 L 807.632812 1020.847656 C 854.234375 1020.96875 898.96875 1002.675781 931.960938 970.003906 C 964.957031 937.332031 983.5 892.972656 983.5 846.710938 L 983.5 403.453125 C 983.5 366.085938 966.816406 330.636719 937.9375 306.660156 L 598.507812 37.542969 C 539.464844 -9.644531 454.863281 -8.121094 397.582031 41.160156 L 65.894531 306.660156 C 35.65625 329.929688 17.582031 365.484375 16.6875 403.453125 L 16.6875 846.257812 C 16.6875 942.683594 95.425781 1020.847656 192.554688 1020.847656 L 290.054688 1020.847656 C 324.605469 1020.851562 352.679688 993.175781 352.929688 958.882812 Z M 354.296875 958.429688 "/>
</g>
</svg>
