<?xml version="1.0" encoding="UTF-8"?>
<svg xmlns="http://www.w3.org/2000/svg" xmlns:xlink="http://www.w3.org/1999/xlink" width="1024px" height="1024px" viewBox="0 0 1024 1024" version="1.1">
<g id="surface1">
<path style="fill:none;stroke-width:1.5;stroke-linecap:round;stroke-linejoin:round;stroke:rgb(0%,0%,0%);stroke-opacity:0.501961;stroke-miterlimit:4;" d="M 11.032356 19.115974 C 9.042633 17.891365 7.191624 16.450233 5.512405 14.818092 C 4.33189 13.642662 3.433189 12.209839 2.88509 10.629059 C 1.898827 7.562752 3.050827 4.052406 6.274937 3.013519 C 7.969421 2.468102 9.819992 2.779877 11.247841 3.851326 C 12.676216 2.781136 14.526173 2.469444 16.220657 3.013519 C 19.444767 4.052406 20.60519 7.562752 19.618927 10.629059 C 19.070827 12.209839 18.172127 13.642662 16.991524 14.818092 C 15.312393 16.450233 13.461384 17.891365 11.471573 19.115974 L 11.256088 19.25 Z M 11.032356 19.115974 " transform="matrix(44.521739,0,0,46.545455,0,0)"/>
</g>
</svg>
