<?xml version="1.0" encoding="UTF-8"?>
<svg xmlns="http://www.w3.org/2000/svg" xmlns:xlink="http://www.w3.org/1999/xlink" width="1024px" height="1024px" viewBox="0 0 1024 1024" version="1.1">
<defs>
<filter id="alpha" filterUnits="objectBoundingBox" x="0%" y="0%" width="100%" height="100%">
  <feColorMatrix type="matrix" in="SourceGraphic" values="0 0 0 0 1 0 0 0 0 1 0 0 0 0 1 0 0 0 1 0"/>
</filter>
<mask id="mask0">
  <g filter="url(#alpha)">
<rect x="0" y="0" width="1024" height="1024" style="fill:rgb(0%,0%,0%);fill-opacity:0.4;stroke:none;"/>
  </g>
</mask>
<clipPath id="clip1">
  <rect x="0" y="0" width="1024" height="1024"/>
</clipPath>
<g id="surface5" clip-path="url(#clip1)">
<path style=" stroke:none;fill-rule:nonzero;fill:rgb(96.470588%,47.45098%,32.156863%);fill-opacity:1;" d="M 747.636719 315.558594 L 747.636719 378.3125 C 732.464844 374.070312 716.421875 371.953125 699.945312 371.953125 L 671.765625 371.953125 L 671.765625 315.558594 C 671.765625 229.492188 600.230469 159.53125 512.21875 159.53125 C 424.207031 159.53125 352.667969 229.066406 352.238281 314.710938 L 352.238281 371.953125 L 324.488281 371.953125 C 307.582031 371.953125 291.539062 374.070312 276.363281 378.734375 L 276.363281 315.558594 C 276.796875 188.363281 382.152344 85.332031 511.351562 85.332031 C 642.28125 85.332031 747.636719 188.363281 747.636719 315.558594 Z M 747.636719 315.558594 "/>
</g>
</defs>
<g id="surface1">
<path style=" stroke:none;fill-rule:evenodd;fill:rgb(96.470588%,47.45098%,32.156863%);fill-opacity:1;" d="M 331.46875 371.789062 L 692.53125 371.789062 C 793.113281 371.789062 874.667969 451.542969 874.667969 549.910156 L 874.667969 760.546875 C 874.667969 858.914062 793.113281 938.667969 692.53125 938.667969 L 331.46875 938.667969 C 230.882812 938.667969 149.332031 858.914062 149.332031 760.546875 L 149.332031 549.910156 C 149.332031 451.542969 230.882812 371.789062 331.46875 371.789062 Z M 511.78125 739.390625 C 533.027344 739.390625 549.933594 722.855469 549.933594 702.078125 L 549.933594 607.953125 C 549.933594 587.601562 533.027344 571.066406 511.78125 571.066406 C 490.972656 571.066406 474.066406 587.601562 474.066406 607.953125 L 474.066406 702.078125 C 474.066406 722.855469 490.972656 739.390625 511.78125 739.390625 Z M 511.78125 739.390625 "/>
<use xlink:href="#surface5" mask="url(#mask0)"/>
</g>
</svg>
