<?xml version="1.0" encoding="UTF-8"?>
<svg xmlns="http://www.w3.org/2000/svg" xmlns:xlink="http://www.w3.org/1999/xlink" width="1024px" height="1024px" viewBox="0 0 1024 1024" version="1.1">
<g id="surface1">
<path style=" stroke:none;fill-rule:nonzero;fill:rgb(96.470588%,47.45098%,32.156863%);fill-opacity:1;" d="M 511.992188 727.882812 C 441.96875 727.882812 373.472656 706.996094 319.117188 669.070312 L 74.703125 498.539062 C -24.265625 431.953125 -24.25 295.507812 74.703125 228.929688 L 319.117188 58.398438 C 427.53125 -19.46875 596.460938 -19.464844 704.871094 58.398438 L 949.285156 228.929688 C 1011.742188 272.511719 1038.160156 343.769531 1016.585938 410.472656 C 1009.695312 431.761719 984.046875 444.226562 959.265625 438.304688 C 934.5 432.382812 920.007812 410.320312 926.898438 389.03125 C 938.542969 353.023438 924.308594 314.574219 890.621094 291.074219 L 646.207031 120.539062 C 568.441406 66.28125 455.550781 66.28125 377.78125 120.539062 L 133.367188 291.074219 C 80.007812 326.976562 80.015625 400.5 133.367188 436.398438 L 377.78125 606.929688 C 455.414062 661.097656 568.054688 661.191406 645.808594 607.207031 L 686.636719 577.351562 C 706.214844 563.035156 735.589844 565.070312 752.246094 581.90625 C 768.902344 598.742188 766.53125 623.996094 746.949219 638.3125 L 705.695312 668.480469 C 705.421875 668.679688 705.148438 668.878906 704.871094 669.070312 C 650.519531 706.996094 582.019531 727.882812 511.992188 727.882812 Z M 704.871094 965.1875 L 949.285156 794.65625 C 1048.25 728.070312 1048.242188 591.628906 949.285156 525.050781 L 704.871094 354.515625 C 596.457031 276.652344 427.527344 276.652344 319.117188 354.515625 L 284.660156 378.816406 C 238.464844 414.117188 294.4375 472.722656 343.691406 440.695312 L 377.855469 416.605469 C 455.628906 362.40625 568.46875 362.421875 646.207031 416.660156 L 890.621094 587.191406 C 943.980469 623.09375 943.972656 696.621094 890.621094 732.515625 L 646.207031 903.046875 C 568.441406 957.3125 455.550781 957.3125 377.78125 903.046875 L 133.367188 732.515625 C 102.507812 710.984375 87.746094 676.675781 94.847656 642.980469 C 99.429688 621.234375 82.640625 600.410156 57.347656 596.46875 C 32.066406 592.535156 7.832031 606.964844 3.25 628.710938 C -9.90625 691.136719 17.472656 754.726562 74.703125 794.65625 L 319.117188 965.1875 C 373.46875 1003.109375 441.96875 1024 511.992188 1024 C 582.019531 1024 650.519531 1003.117188 704.871094 965.1875 Z M 704.871094 965.1875 "/>
</g>
</svg>
