<?xml version="1.0" encoding="UTF-8"?>
<svg xmlns="http://www.w3.org/2000/svg" xmlns:xlink="http://www.w3.org/1999/xlink" width="1024px" height="1024px" viewBox="0 0 1024 1024" version="1.1">
<defs>
<filter id="alpha" filterUnits="objectBoundingBox" x="0%" y="0%" width="100%" height="100%">
  <feColorMatrix type="matrix" in="SourceGraphic" values="0 0 0 0 1 0 0 0 0 1 0 0 0 0 1 0 0 0 1 0"/>
</filter>
<mask id="mask0">
  <g filter="url(#alpha)">
<rect x="0" y="0" width="1024" height="1024" style="fill:rgb(0%,0%,0%);fill-opacity:0.4;stroke:none;"/>
  </g>
</mask>
<clipPath id="clip1">
  <rect x="0" y="0" width="1024" height="1024"/>
</clipPath>
<g id="surface5" clip-path="url(#clip1)">
<path style=" stroke:none;fill-rule:nonzero;fill:rgb(96.470588%,47.45098%,32.156863%);fill-opacity:1;" d="M 938.667969 680.113281 C 938.667969 799.15625 843.09375 895.582031 724.054688 896.007812 L 300.800781 896.007812 C 182.1875 896.007812 85.332031 800.007812 85.332031 680.96875 L 85.332031 680.542969 C 85.332031 680.542969 85.589844 491.699219 85.929688 396.722656 C 85.972656 378.886719 106.453125 368.90625 120.40625 379.996094 C 221.78125 460.425781 403.070312 607.070312 405.332031 608.988281 C 435.625 633.265625 474.027344 646.964844 513.28125 646.964844 C 552.535156 646.964844 590.933594 633.265625 621.226562 608.519531 C 623.488281 607.027344 800.726562 464.777344 903.636719 383.027344 C 917.632812 371.890625 938.199219 381.875 938.238281 399.667969 C 938.667969 493.917969 938.667969 680.113281 938.667969 680.113281 Z M 938.667969 680.113281 "/>
</g>
</defs>
<g id="surface1">
<use xlink:href="#surface5" mask="url(#mask0)"/>
<path style=" stroke:none;fill-rule:nonzero;fill:rgb(96.470588%,47.45098%,32.156863%);fill-opacity:1;" d="M 916.304688 242.074219 C 879.355469 172.441406 806.652344 127.984375 726.609375 127.984375 L 300.792969 127.984375 C 220.753906 127.984375 148.046875 172.441406 111.097656 242.074219 C 102.820312 257.648438 106.746094 277.058594 120.527344 288.066406 L 437.328125 541.464844 C 459.515625 559.386719 486.394531 568.304688 513.277344 568.304688 C 513.445312 568.304688 513.574219 568.304688 513.703125 568.304688 C 513.832031 568.304688 514 568.304688 514.128906 568.304688 C 541.007812 568.304688 567.890625 559.386719 590.074219 541.464844 L 906.875 288.066406 C 920.65625 277.058594 924.582031 257.648438 916.304688 242.074219 Z M 916.304688 242.074219 "/>
</g>
</svg>
