<?xml version="1.0" encoding="UTF-8"?>
<svg xmlns="http://www.w3.org/2000/svg" xmlns:xlink="http://www.w3.org/1999/xlink" width="1024px" height="1024px" viewBox="0 0 1024 1024" version="1.1">
<g id="surface1">
<path style=" stroke:none;fill-rule:nonzero;fill:rgb(52.941176%,58.431373%,87.058824%);fill-opacity:1;" d="M 955.328125 127.8125 L 955.328125 331.128906 L 945.183594 347.9375 L 955.328125 361.648438 L 955.328125 978.636719 C 955.328125 993.714844 936.035156 1005.941406 912.238281 1005.941406 L 657.378906 1005.941406 C 635.210938 1005.941406 616.6875 995.273438 614.515625 981.289062 L 525.429688 403.164062 L 535.539062 385.382812 L 520.796875 372.945312 L 517.542969 351.894531 C 517.222656 349.769531 514.601562 348.71875 511.984375 348.71875 C 509.363281 348.71875 506.777344 349.769531 506.457031 351.894531 L 503.199219 372.945312 L 490.421875 386.6875 L 498.535156 403.164062 L 409.453125 981.289062 C 407.28125 995.273438 388.753906 1005.941406 366.585938 1005.941406 L 111.730469 1005.941406 C 87.933594 1005.941406 68.640625 993.714844 68.640625 978.636719 L 68.640625 361.648438 L 78.648438 347.515625 L 68.640625 331.128906 L 68.640625 127.8125 C 68.640625 107.492188 94.640625 91.015625 126.707031 91.015625 L 503.199219 65.5 L 897.257812 91.015625 C 929.324219 91.015625 955.328125 107.492188 955.328125 127.8125 Z M 955.328125 127.8125 "/>
<path style=" stroke:none;fill-rule:nonzero;fill:rgb(42.352941%,49.803922%,84.705882%);fill-opacity:1;" d="M 897.261719 91.03125 L 862.265625 80.347656 L 834.460938 91.03125 C 866.519531 91.03125 892.511719 107.5 892.511719 127.8125 L 892.511719 978.648438 C 892.511719 993.726562 873.226562 1005.945312 849.4375 1005.945312 L 912.242188 1005.945312 C 936.03125 1005.945312 955.3125 993.722656 955.3125 978.648438 L 955.3125 127.8125 C 955.3125 107.496094 929.320312 91.03125 897.261719 91.03125 Z M 897.261719 91.03125 "/>
<path style=" stroke:none;fill-rule:nonzero;fill:rgb(30.980392%,40%,81.568627%);fill-opacity:1;" d="M 894.636719 27.527344 L 894.636719 91.042969 L 129.324219 91.042969 L 129.324219 27.527344 C 129.324219 12.328125 148.777344 0 172.765625 0 L 338.636719 0 L 511.980469 16.253906 L 685.320312 0 L 851.195312 0 C 875.183594 0 894.636719 12.328125 894.636719 27.527344 Z M 894.636719 27.527344 "/>
<path style=" stroke:none;fill-rule:nonzero;fill:rgb(19.215686%,30.196078%,78.823529%);fill-opacity:1;" d="M 851.199219 0 L 788.394531 0 C 812.382812 0 831.835938 12.328125 831.835938 27.527344 L 831.835938 91.042969 L 894.636719 91.042969 L 894.636719 27.527344 C 894.636719 12.328125 875.183594 0 851.199219 0 Z M 851.199219 0 "/>
<path style=" stroke:none;fill-rule:nonzero;fill:rgb(42.352941%,49.803922%,84.705882%);fill-opacity:1;" d="M 511.976562 268.8125 L 511.976562 348.71875 C 509.359375 348.71875 506.769531 349.773438 506.449219 351.898438 L 409.445312 981.292969 C 407.273438 995.28125 388.75 1005.945312 366.582031 1005.945312 L 303.785156 1005.945312 C 325.953125 1005.945312 344.476562 995.28125 346.648438 981.292969 L 444.578125 345.683594 C 447.613281 326.050781 456.941406 307.007812 471.984375 289.71875 L 492.910156 265.695312 C 497.988281 259.867188 511.976562 262.152344 511.976562 268.8125 Z M 511.976562 268.8125 "/>
<path style=" stroke:none;fill-rule:nonzero;fill:rgb(30.980392%,40%,81.568627%);fill-opacity:1;" d="M 167.382812 676.15625 L 107.765625 676.15625 C 48.246094 676.15625 0 645.585938 0 607.871094 L 0 473.601562 C 0 458.285156 19.597656 445.867188 43.765625 445.867188 L 167.382812 445.867188 C 185.261719 445.867188 199.753906 455.050781 199.753906 466.378906 L 199.753906 655.648438 C 199.75 666.976562 185.257812 676.15625 167.382812 676.15625 Z M 167.382812 676.15625 "/>
<path style=" stroke:none;fill-rule:nonzero;fill:rgb(19.215686%,30.196078%,78.823529%);fill-opacity:1;" d="M 167.382812 445.84375 L 104.578125 445.84375 C 122.457031 445.84375 136.949219 455.023438 136.949219 466.355469 L 136.949219 655.621094 C 136.949219 666.722656 123.023438 675.742188 105.644531 676.097656 C 106.351562 676.105469 107.054688 676.132812 107.765625 676.132812 L 167.382812 676.132812 C 185.261719 676.132812 199.753906 666.949219 199.753906 655.621094 L 199.753906 466.355469 C 199.753906 455.023438 185.257812 445.84375 167.382812 445.84375 Z M 167.382812 445.84375 "/>
<path style=" stroke:none;fill-rule:nonzero;fill:rgb(42.352941%,49.803922%,84.705882%);fill-opacity:1;" d="M 199.75 490.996094 L 95.269531 526.957031 C 77.800781 532.96875 58.230469 536.117188 38.351562 536.117188 L 0 536.117188 L 0 473.601562 C 0 458.285156 19.597656 445.867188 43.765625 445.867188 L 167.382812 445.867188 C 185.261719 445.867188 199.753906 455.050781 199.753906 466.378906 L 199.753906 490.996094 Z M 199.75 490.996094 "/>
<path style=" stroke:none;fill-rule:nonzero;fill:rgb(30.980392%,40%,81.568627%);fill-opacity:1;" d="M 199.753906 466.355469 L 199.753906 490.96875 L 136.957031 512.585938 L 136.957031 466.355469 C 136.957031 455.023438 122.457031 445.832031 104.570312 445.832031 L 167.367188 445.832031 C 185.253906 445.832031 199.753906 455.023438 199.753906 466.355469 Z M 199.753906 466.355469 "/>
<path style=" stroke:none;fill-rule:nonzero;fill:rgb(30.980392%,40%,81.568627%);fill-opacity:1;" d="M 856.609375 676.15625 L 916.226562 676.15625 C 975.746094 676.15625 1023.992188 645.585938 1023.992188 607.867188 L 1023.992188 473.601562 C 1023.992188 458.285156 1004.398438 445.867188 980.226562 445.867188 L 856.609375 445.867188 C 838.730469 445.867188 824.238281 455.050781 824.238281 466.378906 L 824.238281 655.644531 C 824.242188 666.972656 838.734375 676.15625 856.609375 676.15625 Z M 856.609375 676.15625 "/>
<path style=" stroke:none;fill-rule:nonzero;fill:rgb(19.215686%,30.196078%,78.823529%);fill-opacity:1;" d="M 980.203125 445.839844 L 917.398438 445.839844 C 941.570312 445.839844 961.164062 458.257812 961.164062 473.574219 L 961.164062 607.839844 C 961.164062 645.105469 914.054688 675.378906 855.519531 676.097656 C 855.875 676.105469 856.222656 676.132812 856.585938 676.132812 L 916.203125 676.132812 C 975.71875 676.132812 1023.96875 645.554688 1023.96875 607.839844 L 1023.96875 473.574219 C 1023.96875 458.257812 1004.375 445.839844 980.203125 445.839844 Z M 980.203125 445.839844 "/>
<path style=" stroke:none;fill-rule:nonzero;fill:rgb(42.352941%,49.803922%,84.705882%);fill-opacity:1;" d="M 1023.964844 473.582031 L 1023.964844 536.082031 L 985.605469 536.082031 C 977.363281 536.082031 969.15625 535.539062 961.167969 534.464844 C 949.863281 532.988281 938.90625 530.457031 928.6875 526.933594 L 824.207031 490.96875 L 824.207031 466.355469 C 824.207031 455.023438 838.707031 445.832031 856.59375 445.832031 L 980.207031 445.832031 C 1004.382812 445.832031 1023.964844 458.257812 1023.964844 473.582031 Z M 1023.964844 473.582031 "/>
<path style=" stroke:none;fill-rule:nonzero;fill:rgb(30.980392%,40%,81.568627%);fill-opacity:1;" d="M 1023.960938 473.582031 L 1023.960938 536.082031 L 985.601562 536.082031 C 977.359375 536.082031 969.152344 535.539062 961.164062 534.464844 L 961.164062 473.582031 C 961.164062 458.257812 941.550781 445.832031 917.40625 445.832031 L 980.203125 445.832031 C 1004.378906 445.832031 1023.960938 458.257812 1023.960938 473.582031 Z M 1023.960938 473.582031 "/>
<path style=" stroke:none;fill-rule:nonzero;fill:rgb(42.352941%,49.803922%,84.705882%);fill-opacity:1;" d="M 338.636719 0 L 685.320312 0 L 685.320312 91.042969 L 338.636719 91.042969 Z M 338.636719 0 "/>
<path style=" stroke:none;fill-rule:nonzero;fill:rgb(19.215686%,30.196078%,78.823529%);fill-opacity:1;" d="M 622.519531 0 L 685.320312 0 L 685.320312 91.042969 L 622.519531 91.042969 Z M 622.519531 0 "/>
<path style=" stroke:none;fill-rule:nonzero;fill:rgb(30.980392%,40%,81.568627%);fill-opacity:1;" d="M 503.199219 372.945312 L 501.984375 380.917969 L 500.195312 392.457031 L 498.535156 403.164062 C 498.117188 403.144531 497.671875 403.101562 497.257812 403.0625 L 68.640625 361.648438 L 68.640625 331.128906 C 69.820312 331.128906 71.035156 331.1875 72.25 331.308594 Z M 503.199219 372.945312 "/>
<path style=" stroke:none;fill-rule:nonzero;fill:rgb(30.980392%,40%,81.568627%);fill-opacity:1;" d="M 955.324219 331.128906 L 955.324219 361.648438 L 526.703125 403.0625 C 526.285156 403.101562 525.839844 403.144531 525.425781 403.164062 L 520.792969 372.945312 L 951.714844 331.308594 C 952.925781 331.1875 954.136719 331.128906 955.324219 331.128906 Z M 955.324219 331.128906 "/>
<path style=" stroke:none;fill-rule:nonzero;fill:rgb(19.215686%,30.196078%,78.823529%);fill-opacity:1;" d="M 955.316406 361.652344 L 955.316406 331.128906 C 954.136719 331.128906 952.929688 331.1875 951.71875 331.308594 L 892.515625 337.03125 L 892.515625 367.71875 Z M 955.316406 361.652344 "/>
<path style=" stroke:none;fill-rule:nonzero;fill:rgb(30.980392%,40%,81.568627%);fill-opacity:1;" d="M 204.066406 886.992188 L 204.066406 1005.945312 L 156.15625 1005.945312 L 156.15625 886.992188 C 156.15625 878.613281 166.855469 871.8125 180.109375 871.8125 C 193.335938 871.8125 204.066406 878.613281 204.066406 886.992188 Z M 204.066406 886.992188 "/>
<path style=" stroke:none;fill-rule:nonzero;fill:rgb(30.980392%,40%,81.568627%);fill-opacity:1;" d="M 874.964844 886.992188 L 874.964844 1005.945312 L 827.050781 1005.945312 L 827.050781 886.992188 C 827.050781 878.613281 837.75 871.8125 851.003906 871.8125 C 864.226562 871.8125 874.964844 878.613281 874.964844 886.992188 Z M 874.964844 886.992188 "/>
</g>
</svg>
